<svg version="1.2" xmlns="http://www.w3.org/2000/svg" xmlns:xlink="http://www.w3.org/1999/xlink" overflow="visible" preserveAspectRatio="none" viewBox="0 0 24 24" width="66" height="66"><g><path xmlns:default="http://www.w3.org/2000/svg" id="question" d="M13.4,15.47c-0.08-0.08-0.18-0.12-0.29-0.12h-2.5c-0.23,0.01-0.41,0.19-0.42,0.42v2.5  c0.01,0.23,0.19,0.41,0.42,0.42h2.5c0.23-0.01,0.41-0.19,0.42-0.42v-2.5C13.53,15.66,13.48,15.55,13.4,15.47z M16.81,9.47  c0-0.58-0.15-1.15-0.43-1.65c-0.27-0.51-0.65-0.97-1.1-1.33c-0.46-0.36-0.97-0.65-1.52-0.86c-0.54-0.21-1.11-0.32-1.68-0.32  C10.07,5.26,8.2,6.35,7.25,8.12C7.19,8.21,7.17,8.31,7.19,8.41c0.02,0.1,0.07,0.2,0.16,0.26l1.71,1.34  c0.08,0.05,0.17,0.08,0.26,0.08c0.13,0,0.25-0.07,0.32-0.17c0.32-0.44,0.7-0.84,1.11-1.2c0.34-0.21,0.73-0.31,1.12-0.3  c0.4-0.02,0.79,0.09,1.13,0.3c0.28,0.16,0.46,0.45,0.48,0.77c0.01,0.29-0.08,0.57-0.26,0.79c-0.25,0.25-0.54,0.45-0.87,0.58  c-0.57,0.27-1.07,0.66-1.48,1.15c-0.42,0.44-0.67,1.02-0.68,1.63v0.47c0,0.14,0.04,0.27,0.11,0.39c0.05,0.11,0.15,0.18,0.27,0.19  h2.5c0.12,0,0.23-0.06,0.29-0.16c0.08-0.1,0.12-0.22,0.12-0.34c0.03-0.26,0.13-0.5,0.29-0.7c0.18-0.28,0.42-0.52,0.71-0.68  l0.64-0.37c0.21-0.14,0.41-0.29,0.6-0.45c0.22-0.18,0.41-0.39,0.57-0.62c0.35-0.56,0.53-1.2,0.53-1.85l0,0L16.81,9.47z" style="fill: rgb(18, 18, 18);" vector-effect="non-scaling-stroke"/></g></svg>